<svg xmlns="http://www.w3.org/2000/svg" width="69" height="69" viewBox="0 0 69 69">
  <g id="Group_175" data-name="Group 175" transform="translate(0 0)">
    <g id="Group_172" data-name="Group 172" transform="translate(0 0)">
      <path id="Path_2093" data-name="Path 2093" d="M209.514,324.862a34.5,34.5,0,1,1,34.5-34.5A34.54,34.54,0,0,1,209.514,324.862Zm0-68.267a33.767,33.767,0,1,0,33.767,33.767A33.805,33.805,0,0,0,209.514,256.595Z" transform="translate(-175.013 -255.862)" fill="#fc8b53"/>
    </g>
    <g id="Group_174" data-name="Group 174" transform="translate(14.313 18.402)">
      <g id="Group_173" data-name="Group 173">
        <path id="Path_2094" data-name="Path 2094" d="M220.616,273.309l-3.226-3.226a5.243,5.243,0,0,0-4.177-1.46,6.563,6.563,0,0,0-4.065,1.937l-6.188,6.189a2.36,2.36,0,0,0-.349.445,5.533,5.533,0,0,0-2.052-.214,6.554,6.554,0,0,0-4.065,1.937l-9.875,9.873a6.588,6.588,0,0,0-1.934,3.988,5.178,5.178,0,0,0,1.458,4.252l3.226,3.226a5.151,5.151,0,0,0,3.679,1.486c.191,0,.384-.01.571-.028a6.594,6.594,0,0,0,3.99-1.934l5.646-5.646a2.332,2.332,0,0,0,.612-1.076,5.416,5.416,0,0,0,1.841.323,6.531,6.531,0,0,0,4.556-1.958l9.875-9.875a6.6,6.6,0,0,0,1.934-3.987A5.183,5.183,0,0,0,220.616,273.309Zm-18.467,12.014a.613.613,0,0,1-.091-.442,1.87,1.87,0,0,1,.566-1.1,2.385,2.385,0,0,0,.333-.419l1.652,1.652a.609.609,0,0,1,.092.443,1.876,1.876,0,0,1-.568,1.1,2.332,2.332,0,0,0-.332.42Zm5.812-3.656-1.609-1.609,6.148-6.148a1.892,1.892,0,0,1,1.077-.568.591.591,0,0,1,.46.091l3.227,3.227a.615.615,0,0,1,.092.442,1.884,1.884,0,0,1-.569,1.1l-7.352,7.352A5.127,5.127,0,0,0,207.961,281.667Zm-8.057,9.12-5.644,5.645a1.876,1.876,0,0,1-1.1.568.577.577,0,0,1-.443-.092l-3.227-3.228a.607.607,0,0,1-.091-.44,1.868,1.868,0,0,1,.568-1.1l7.354-7.354a5.131,5.131,0,0,0,1.474,3.886l1.686,1.686A2.332,2.332,0,0,0,199.9,290.786Z" transform="translate(-184.658 -268.602)" fill="#ee307a"/>
      </g>
    </g>
  </g>
</svg>
