<svg xmlns="http://www.w3.org/2000/svg" width="69" height="69" viewBox="0 0 69 69">
  <g id="Group_178" data-name="Group 178" transform="translate(-215 -486)">
    <g id="Group_141" data-name="Group 141" transform="translate(215 486)">
      <g id="Group_126" data-name="Group 126" transform="translate(0)">
        <path id="Path_1816" data-name="Path 1816" d="M65.851,321.6a34.5,34.5,0,1,1,34.5-34.5A34.539,34.539,0,0,1,65.851,321.6Zm0-68.443A33.944,33.944,0,1,0,99.794,287.1,33.982,33.982,0,0,0,65.851,253.152Z" transform="translate(-31.351 -252.595)" fill="#fc8b53"/>
      </g>
      <g id="Group_140" data-name="Group 140" transform="translate(15.574 15.101)">
        <g id="Group_139" data-name="Group 139" style="mix-blend-mode: multiply;isolation: isolate">
          <g id="Group_138" data-name="Group 138">
            <g id="Group_137" data-name="Group 137">
              <g id="Group_133" data-name="Group 133" opacity="0.4">
                <g id="Group_132" data-name="Group 132">
                  <g id="Group_131" data-name="Group 131">
                    <path id="Path_2073" data-name="Path 2073" d="M79.884,296.226l1.246,1.3a.55.55,0,0,0,.852-.065,19.153,19.153,0,0,0-16.559-29.8,19.835,19.835,0,0,0-2.182.194,19.155,19.155,0,0,0-12.384,30.625.555.555,0,0,0,.857.011l1.155-1.376a.547.547,0,0,0,.017-.68,16.32,16.32,0,1,1,26.934-.889A.547.547,0,0,0,79.884,296.226Z" transform="translate(-46.889 -267.654)" fill="#fc8b53"/>
                  </g>
                </g>
              </g>
              <g id="Group_136" data-name="Group 136" transform="translate(6.148 6.529)" opacity="0.6">
                <g id="Group_135" data-name="Group 135">
                  <g id="Group_134" data-name="Group 134">
                    <path id="Path_2074" data-name="Path 2074" d="M75.386,291.271l1.489,1.551a.626.626,0,0,0,1.02-.172,12.829,12.829,0,0,0,1.194-5.866,13.03,13.03,0,1,0-26.045.857,12.858,12.858,0,0,0,1.575,5.775.627.627,0,0,0,1.031.1l1.383-1.645a.624.624,0,0,0,.085-.66,9.746,9.746,0,0,1-.858-3.68,9.81,9.81,0,1,1,19,3.084A.624.624,0,0,0,75.386,291.271Z" transform="translate(-53.037 -274.182)" fill="#fc8b53"/>
                  </g>
                </g>
              </g>
            </g>
          </g>
        </g>
        <path id="Path_2075" data-name="Path 2075" d="M77.393,303.429l-.176-5.352a2,2,0,0,0-1.169-1.91,1.8,1.8,0,0,0-1.352.106l-.093.007-.028,0a1.56,1.56,0,0,0-1.322-1.174,2.145,2.145,0,0,0-1.665.395,1.765,1.765,0,0,0-1.917-.939,2.187,2.187,0,0,0-1.5.869l-.15-4.562c-.029-.9-.088-1.793-.088-2.688a1.9,1.9,0,0,0-1.888-1.673,2.011,2.011,0,0,0-1.463.681,2.136,2.136,0,0,0-.414,1.516l0,2.188.008,6.064c-.038.188.077,4.4.077,4.4-.368-.352-.779-.754-1.148-1.14a5.975,5.975,0,0,0-3.428-1.556,1.683,1.683,0,0,0-1.208.256,2.5,2.5,0,0,0-.245.228,1.732,1.732,0,0,0-.489,1.98,2.1,2.1,0,0,0,.739.605,5.047,5.047,0,0,1,1.549,1.086c.845,1.012,2.8,3.269,4,4.47.245.141.77.632,1.015.753a8.965,8.965,0,0,1,1.567,1.09,7.436,7.436,0,0,0,1.138.637,7.511,7.511,0,0,0,3.827.82c1.618-.053,3.092-.005,4.147-1l.058,0,.027-.073a5.372,5.372,0,0,0,1.662-4.025C77.448,305.11,77.4,303.7,77.393,303.429Z" transform="translate(-46.889 -267.654)" fill="#ee307a" style="mix-blend-mode: multiply;isolation: isolate"/>
      </g>
      <path id="Path_2076" data-name="Path 2076" d="M65.917,282.385a4.651,4.651,0,0,0-2.947,7.993v-1.906a3.079,3.079,0,0,1,6.158,0l.011,1.983a4.678,4.678,0,0,0-3.222-8.07Z" transform="translate(-31.315 -252.559)" fill="#fc8b53"/>
    </g>
  </g>
</svg>
