<svg xmlns="http://www.w3.org/2000/svg" width="69" height="69" viewBox="0 0 69 69">
  <g id="Group_177" data-name="Group 177" transform="translate(0 0)">
    <g id="Group_176" data-name="Group 176" transform="translate(0 0)">
      <path id="Path_2095" data-name="Path 2095" d="M358.542,268.1a34.5,34.5,0,1,1,34.5-34.5A34.539,34.539,0,0,1,358.542,268.1Zm0-68.392A33.892,33.892,0,1,0,392.434,233.6,33.931,33.931,0,0,0,358.542,199.71Z" transform="translate(-324.041 -199.102)" fill="#fc8b53"/>
    </g>
    <path id="Path_2096" data-name="Path 2096" d="M362.7,234.1h-1.455c-.154,0-.223-.167-.24-.218a12.564,12.564,0,0,0-.577-1.42.253.253,0,0,1,.009-.272l1.057-1.088a2.207,2.207,0,0,0,0-3.053L359.21,225.7a2.073,2.073,0,0,0-1.482-.622h0a2.068,2.068,0,0,0-1.481.622l-1.069,1.1c-.088.093-.224.034-.264.013a12.1,12.1,0,0,0-1.379-.59c-.047-.015-.2-.082-.2-.23v-1.535a2.13,2.13,0,0,0-2.1-2.158h-3.228a2.131,2.131,0,0,0-2.1,2.158v1.535c0,.148-.151.215-.2.23a11.927,11.927,0,0,0-1.378.59c-.04.021-.178.08-.265-.012l-1.066-1.1a2.074,2.074,0,0,0-1.482-.622h0a2.074,2.074,0,0,0-1.482.622l-2.283,2.353a2.212,2.212,0,0,0,0,3.052l1.055,1.087a.25.25,0,0,1,.014.272,12.5,12.5,0,0,0-.58,1.421c-.018.053-.085.218-.24.218h-1.453a2.13,2.13,0,0,0-2.1,2.16v3.325a2.13,2.13,0,0,0,2.1,2.159h1.43a.217.217,0,0,1,.213.141,12.363,12.363,0,0,0,.639,1.587.2.2,0,0,1-.048.213l-1.03,1.059a2.215,2.215,0,0,0,0,3.053l2.282,2.351a2.08,2.08,0,0,0,1.483.622h0a2.079,2.079,0,0,0,1.481-.622l1.014-1.046a.179.179,0,0,1,.208-.049,11.873,11.873,0,0,0,1.539.664.241.241,0,0,1,.148.237v1.437a2.131,2.131,0,0,0,2.1,2.159h3.228a2.131,2.131,0,0,0,2.1-2.159v-1.437a.244.244,0,0,1,.147-.237,11.794,11.794,0,0,0,1.54-.664.179.179,0,0,1,.208.049l1.015,1.045a2.071,2.071,0,0,0,1.48.623h0a2.08,2.08,0,0,0,1.483-.622l2.281-2.351a2.209,2.209,0,0,0,0-3.054l-1.028-1.059a.189.189,0,0,1-.047-.213,12.782,12.782,0,0,0,.636-1.587.219.219,0,0,1,.215-.14H362.7a2.13,2.13,0,0,0,2.094-2.159v-3.325A2.13,2.13,0,0,0,362.7,234.1Zm-7.206,3.823a5.867,5.867,0,1,1-5.865-6.043A5.962,5.962,0,0,1,355.491,237.922Zm26-16.191h-1c-.106,0-.154-.115-.165-.15a8.706,8.706,0,0,0-.4-.975.175.175,0,0,1,.008-.188l.726-.748a1.516,1.516,0,0,0,0-2.1l-1.567-1.616a1.431,1.431,0,0,0-1.019-.426h0a1.423,1.423,0,0,0-1.018.426l-.734.756c-.059.061-.154.022-.181.009a7.9,7.9,0,0,0-.948-.406c-.032-.012-.137-.056-.137-.158v-1.053a1.463,1.463,0,0,0-1.44-1.485H371.4a1.464,1.464,0,0,0-1.44,1.485v1.053c0,.1-.1.147-.137.158a8.03,8.03,0,0,0-.948.406c-.026.013-.121.053-.181-.009l-.732-.756a1.43,1.43,0,0,0-1.019-.426h0a1.424,1.424,0,0,0-1.016.426l-1.57,1.616a1.518,1.518,0,0,0,0,2.1l.725.747a.173.173,0,0,1,.008.188,8.525,8.525,0,0,0-.4.977c-.013.034-.059.149-.165.149h-1a1.464,1.464,0,0,0-1.44,1.484V225.5a1.465,1.465,0,0,0,1.44,1.484h.981a.149.149,0,0,1,.148.1,8.719,8.719,0,0,0,.438,1.091.134.134,0,0,1-.033.145l-.707.728a1.518,1.518,0,0,0,0,2.1l1.567,1.615a1.421,1.421,0,0,0,1.019.428h0a1.423,1.423,0,0,0,1.019-.428l.7-.718A.121.121,0,0,1,368.8,232a8.243,8.243,0,0,0,1.059.456.167.167,0,0,1,.1.163v.986a1.465,1.465,0,0,0,1.44,1.484h2.217a1.464,1.464,0,0,0,1.44-1.484v-.986a.167.167,0,0,1,.1-.163,7.98,7.98,0,0,0,1.057-.456.12.12,0,0,1,.142.034l.7.717a1.417,1.417,0,0,0,1.016.429h0a1.426,1.426,0,0,0,1.02-.428l1.567-1.615a1.516,1.516,0,0,0,0-2.1l-.706-.728a.133.133,0,0,1-.033-.147,8.644,8.644,0,0,0,.438-1.09.15.15,0,0,1,.147-.1h.981a1.464,1.464,0,0,0,1.44-1.484v-2.285A1.463,1.463,0,0,0,381.487,221.731Zm-4.95,2.626a4.03,4.03,0,1,1-4.029-4.152A4.1,4.1,0,0,1,376.537,224.357Z" transform="translate(-324.041 -199.102)" fill="#ee307a" style="mix-blend-mode: multiply;isolation: isolate"/>
  </g>
</svg>
