<svg id="Group_171" data-name="Group 171" xmlns="http://www.w3.org/2000/svg" width="69" height="69" viewBox="0 0 69 69">
  <g id="Group_169" data-name="Group 169">
    <path id="Path_2090" data-name="Path 2090" d="M342.995,116.184a34.5,34.5,0,1,1,34.5-34.5A34.538,34.538,0,0,1,342.995,116.184Zm0-68.419a33.919,33.919,0,1,0,33.919,33.919A33.958,33.958,0,0,0,342.995,47.765Z" transform="translate(-308.495 -47.184)" fill="#fc8b53"/>
  </g>
  <g id="Group_170" data-name="Group 170" transform="translate(17.99 15.923)" style="mix-blend-mode: multiply;isolation: isolate">
    <path id="Path_2091" data-name="Path 2091" d="M335.151,88.476h12.715a1.048,1.048,0,0,0,1.047-1.046V77.213a1.049,1.049,0,0,0-1.047-1.047h-9.624V75.081A3.156,3.156,0,0,1,341.458,72a3.222,3.222,0,0,1,3.078,2.2.813.813,0,0,0,1.18.459l.417-.241a.81.81,0,0,0,.362-.964,5.328,5.328,0,0,0-10.346,1.633v1.085h-1a1.048,1.048,0,0,0-1.046,1.047V87.43A1.047,1.047,0,0,0,335.151,88.476Zm5.311-7.709a1.047,1.047,0,0,1,2.094,0v3.109a1.047,1.047,0,0,1-2.094,0Z" transform="translate(-324.999 -61.48)" fill="#ee307a"/>
    <path id="Path_2092" data-name="Path 2092" d="M357.107,64.714a1.216,1.216,0,0,0-.375-.233l-.6-.237a40.043,40.043,0,0,0-29.237,0l-.14.055A2.737,2.737,0,0,0,325,66.864V89.543a2.537,2.537,0,0,0,1.136,2.119l14.026,9.317a2.431,2.431,0,0,0,2.7,0l13.98-9.287a2.641,2.641,0,0,0,1.182-2.2v-23.6A1.213,1.213,0,0,0,357.107,64.714ZM327.418,66.8a.237.237,0,0,1,.15-.22,38.194,38.194,0,0,1,27.881,0l.151.059V89.483a.233.233,0,0,1-.107.2l-13.853,9.2a.24.24,0,0,1-.262,0l-13.854-9.2a.235.235,0,0,1-.106-.2Z" transform="translate(-324.999 -61.48)" fill="#fc8b53"/>
  </g>
</svg>
